<mxfile host="Electron" modified="2024-04-07T21:07:57.371Z" agent="Mozilla/5.0 (Windows NT 10.0; Win64; x64) AppleWebKit/537.36 (KHTML, like Gecko) draw.io/24.1.0 Chrome/120.0.6099.109 Electron/28.1.0 Safari/537.36" etag="c-CENjcFTOuF4pXp5GUw" version="24.1.0" type="device">
  <diagram name="Página-1" id="llCkeUeYHokbtF5viglv">
    <mxGraphModel dx="1420" dy="830" grid="1" gridSize="10" guides="1" tooltips="1" connect="1" arrows="1" fold="1" page="1" pageScale="1" pageWidth="827" pageHeight="1169" background="#CCE5FF" math="0" shadow="0">
      <root>
        <mxCell id="0" />
        <mxCell id="1" parent="0" />
        <mxCell id="s0-CPVHgHW3RgJkMsbGV-1" value="&lt;font style=&quot;font-size: 16px;&quot; color=&quot;#000000&quot; face=&quot;Comic Sans MS&quot;&gt;&lt;b&gt;17 Hacer un programa para ingresar un número y luego informar todos los divisores de ese número. &lt;br&gt;&lt;br&gt;Ejemplo A. Si se ingresa 6 se listarán: 1, 2, 3 y 6&lt;br&gt;Ejemplo B. Si se ingresa 9 se listarán: 1, 3 y 9.&lt;br&gt;Ejemplo 3. Si se ingresa 11 se listarán 1 y 11.&lt;/b&gt;&lt;/font&gt;" style="text;whiteSpace=wrap;html=1;fontFamily=Architects Daughter;fontSource=https%3A%2F%2Ffonts.googleapis.com%2Fcss%3Ffamily%3DArchitects%2BDaughter;" vertex="1" parent="1">
          <mxGeometry x="64" y="10" width="726" height="140" as="geometry" />
        </mxCell>
        <mxCell id="s0-CPVHgHW3RgJkMsbGV-22" value="" style="whiteSpace=wrap;html=1;rounded=0;labelBackgroundColor=none;strokeColor=#000000;strokeWidth=2;align=center;verticalAlign=middle;fontFamily=Helvetica;fontSize=12;fontColor=default;fillColor=#d5e8d4;container=0;" vertex="1" parent="1">
          <mxGeometry x="191.35" y="390" width="407.3" height="420" as="geometry" />
        </mxCell>
        <mxCell id="s0-CPVHgHW3RgJkMsbGV-45" value="" style="line;strokeWidth=2;direction=south;html=1;hachureGap=4;fontFamily=Architects Daughter;fontSource=https://fonts.googleapis.com/css?family=Architects+Daughter;strokeColor=#000000;container=0;" vertex="1" parent="1">
          <mxGeometry x="390" y="250" width="10" height="50" as="geometry" />
        </mxCell>
        <mxCell id="s0-CPVHgHW3RgJkMsbGV-43" value="" style="line;strokeWidth=2;direction=south;html=1;hachureGap=4;fontFamily=Architects Daughter;fontSource=https://fonts.googleapis.com/css?family=Architects+Daughter;strokeColor=#000000;container=0;" vertex="1" parent="1">
          <mxGeometry x="390" y="340" width="10" height="50" as="geometry" />
        </mxCell>
        <mxCell id="s0-CPVHgHW3RgJkMsbGV-158" value="" style="line;strokeWidth=2;html=1;perimeter=backbonePerimeter;points=[];outlineConnect=0;hachureGap=4;fontFamily=Architects Daughter;fontSource=https://fonts.googleapis.com/css?family=Architects+Daughter;strokeColor=#000000;container=0;" vertex="1" parent="1">
          <mxGeometry x="336" y="525" width="34" height="10" as="geometry" />
        </mxCell>
        <mxCell id="s0-CPVHgHW3RgJkMsbGV-44" value="" style="line;strokeWidth=2;direction=south;html=1;hachureGap=4;fontFamily=Architects Daughter;fontSource=https://fonts.googleapis.com/css?family=Architects+Daughter;strokeColor=#000000;container=0;" vertex="1" parent="1">
          <mxGeometry x="334" y="530" width="10" height="80" as="geometry" />
        </mxCell>
        <mxCell id="s0-CPVHgHW3RgJkMsbGV-157" value="" style="line;strokeWidth=2;html=1;perimeter=backbonePerimeter;points=[];outlineConnect=0;hachureGap=4;fontFamily=Architects Daughter;fontSource=https://fonts.googleapis.com/css?family=Architects+Daughter;strokeColor=#000000;container=0;" vertex="1" parent="1">
          <mxGeometry x="500" y="525" width="46" height="10" as="geometry" />
        </mxCell>
        <mxCell id="s0-CPVHgHW3RgJkMsbGV-42" value="" style="line;strokeWidth=2;direction=south;html=1;hachureGap=4;fontFamily=Architects Daughter;fontSource=https://fonts.googleapis.com/css?family=Architects+Daughter;strokeColor=#000000;container=0;" vertex="1" parent="1">
          <mxGeometry x="540" y="530" width="10" height="160" as="geometry" />
        </mxCell>
        <mxCell id="s0-CPVHgHW3RgJkMsbGV-46" value="" style="line;strokeWidth=2;direction=south;html=1;hachureGap=4;fontFamily=Architects Daughter;fontSource=https://fonts.googleapis.com/css?family=Architects+Daughter;strokeColor=#000000;container=0;" vertex="1" parent="1">
          <mxGeometry x="334" y="650" width="10" height="40" as="geometry" />
        </mxCell>
        <mxCell id="s0-CPVHgHW3RgJkMsbGV-57" value="" style="line;strokeWidth=2;html=1;perimeter=backbonePerimeter;points=[];outlineConnect=0;hachureGap=4;fontFamily=Architects Daughter;fontSource=https://fonts.googleapis.com/css?family=Architects+Daughter;strokeColor=#000000;container=0;" vertex="1" parent="1">
          <mxGeometry x="338" y="684" width="208" height="10" as="geometry" />
        </mxCell>
        <mxCell id="s0-CPVHgHW3RgJkMsbGV-51" value="" style="line;strokeWidth=2;direction=south;html=1;hachureGap=4;fontFamily=Architects Daughter;fontSource=https://fonts.googleapis.com/css?family=Architects+Daughter;strokeColor=#000000;container=0;" vertex="1" parent="1">
          <mxGeometry x="390" y="810" width="10" height="50" as="geometry" />
        </mxCell>
        <mxCell id="s0-CPVHgHW3RgJkMsbGV-2" value="" style="strokeWidth=2;html=1;shape=mxgraph.flowchart.start_2;whiteSpace=wrap;rounded=0;labelBackgroundColor=none;strokeColor=#000000;align=center;verticalAlign=middle;fontFamily=Helvetica;fontSize=12;fontColor=default;fillColor=#d5e8d4;container=0;" vertex="1" parent="1">
          <mxGeometry x="370" y="200" width="50" height="50" as="geometry" />
        </mxCell>
        <mxCell id="s0-CPVHgHW3RgJkMsbGV-4" value="&lt;font size=&quot;1&quot; color=&quot;#000000&quot; face=&quot;Comic Sans MS&quot;&gt;&lt;b style=&quot;font-size: 21px;&quot;&gt;I&lt;/b&gt;&lt;/font&gt;" style="text;strokeColor=none;align=center;fillColor=none;html=1;verticalAlign=middle;whiteSpace=wrap;rounded=0;fontFamily=Architects Daughter;fontSource=https%3A%2F%2Ffonts.googleapis.com%2Fcss%3Ffamily%3DArchitects%2BDaughter;container=0;" vertex="1" parent="1">
          <mxGeometry x="375" y="205" width="40" height="40" as="geometry" />
        </mxCell>
        <mxCell id="s0-CPVHgHW3RgJkMsbGV-3" value="" style="strokeWidth=2;html=1;shape=mxgraph.flowchart.start_2;whiteSpace=wrap;rounded=0;labelBackgroundColor=none;strokeColor=#000000;align=center;verticalAlign=middle;fontFamily=Helvetica;fontSize=12;fontColor=default;fillColor=#d5e8d4;container=0;" vertex="1" parent="1">
          <mxGeometry x="370" y="860" width="50" height="50" as="geometry" />
        </mxCell>
        <mxCell id="s0-CPVHgHW3RgJkMsbGV-5" value="&lt;font size=&quot;1&quot; color=&quot;#000000&quot; face=&quot;Comic Sans MS&quot;&gt;&lt;b style=&quot;font-size: 21px;&quot;&gt;F&lt;/b&gt;&lt;/font&gt;" style="text;strokeColor=none;align=center;fillColor=none;html=1;verticalAlign=middle;whiteSpace=wrap;rounded=0;fontFamily=Architects Daughter;fontSource=https://fonts.googleapis.com/css?family=Architects+Daughter;container=0;" vertex="1" parent="1">
          <mxGeometry x="375" y="865" width="40" height="40" as="geometry" />
        </mxCell>
        <mxCell id="s0-CPVHgHW3RgJkMsbGV-11" value="" style="shape=trapezoid;perimeter=trapezoidPerimeter;whiteSpace=wrap;html=1;fixedSize=1;rounded=0;labelBackgroundColor=none;strokeColor=#121211;strokeWidth=2;align=center;verticalAlign=middle;fontFamily=Helvetica;fontSize=12;fontColor=default;fillColor=#d5e8d4;direction=west;container=0;" vertex="1" parent="1">
          <mxGeometry x="320" y="300" width="150" height="40" as="geometry">
            <mxRectangle x="-1020" y="-650" width="50" height="40" as="alternateBounds" />
          </mxGeometry>
        </mxCell>
        <mxCell id="s0-CPVHgHW3RgJkMsbGV-12" value="&lt;font face=&quot;Comic Sans MS&quot; color=&quot;#000000&quot;&gt;&lt;span style=&quot;font-size: 16px;&quot;&gt;&lt;b&gt;num&lt;/b&gt;&lt;/span&gt;&lt;/font&gt;" style="text;strokeColor=none;align=center;fillColor=none;html=1;verticalAlign=middle;whiteSpace=wrap;rounded=0;fontFamily=Architects Daughter;fontSource=https://fonts.googleapis.com/css?family=Architects+Daughter;container=0;" vertex="1" parent="1">
          <mxGeometry x="365" y="305" width="60" height="30" as="geometry" />
        </mxCell>
        <mxCell id="s0-CPVHgHW3RgJkMsbGV-24" value="" style="ellipse;whiteSpace=wrap;html=1;aspect=fixed;rounded=0;labelBackgroundColor=none;strokeColor=#0F140C;strokeWidth=3;align=center;verticalAlign=middle;fontFamily=Helvetica;fontSize=12;fontColor=default;fillColor=#d5e8d4;container=0;" vertex="1" parent="1">
          <mxGeometry x="106" y="415" width="170" height="170" as="geometry" />
        </mxCell>
        <mxCell id="s0-CPVHgHW3RgJkMsbGV-25" value="" style="endArrow=none;html=1;rounded=0;strokeColor=#0F140C;fontFamily=Helvetica;fontSize=12;fontColor=default;fillColor=#B2C9AB;strokeWidth=2;" edge="1" parent="1">
          <mxGeometry width="50" height="50" relative="1" as="geometry">
            <mxPoint x="269.20000000000005" y="462.6" as="sourcePoint" />
            <mxPoint x="112.80000000000001" y="462.6" as="targetPoint" />
          </mxGeometry>
        </mxCell>
        <mxCell id="s0-CPVHgHW3RgJkMsbGV-26" value="" style="endArrow=none;html=1;rounded=0;strokeColor=#0F140C;fontFamily=Helvetica;fontSize=12;fontColor=default;fillColor=#B2C9AB;exitX=0.264;exitY=0.952;exitDx=0;exitDy=0;exitPerimeter=0;strokeWidth=2;" edge="1" parent="1" source="s0-CPVHgHW3RgJkMsbGV-24">
          <mxGeometry width="50" height="50" relative="1" as="geometry">
            <mxPoint x="146.8" y="517.0000000000001" as="sourcePoint" />
            <mxPoint x="153.6" y="462.6" as="targetPoint" />
          </mxGeometry>
        </mxCell>
        <mxCell id="s0-CPVHgHW3RgJkMsbGV-27" value="" style="endArrow=none;html=1;rounded=0;strokeColor=#0F140C;fontFamily=Helvetica;fontSize=12;fontColor=default;fillColor=#B2C9AB;exitX=0.728;exitY=0.948;exitDx=0;exitDy=0;exitPerimeter=0;strokeWidth=2;" edge="1" parent="1" source="s0-CPVHgHW3RgJkMsbGV-24">
          <mxGeometry width="50" height="50" relative="1" as="geometry">
            <mxPoint x="208" y="530.6000000000001" as="sourcePoint" />
            <mxPoint x="229.76000000000002" y="462.6" as="targetPoint" />
          </mxGeometry>
        </mxCell>
        <mxCell id="s0-CPVHgHW3RgJkMsbGV-29" value="&lt;font size=&quot;1&quot; face=&quot;Comic Sans MS&quot; color=&quot;#000000&quot;&gt;&lt;b style=&quot;font-size: 20px;&quot;&gt;x&lt;/b&gt;&lt;/font&gt;" style="text;strokeColor=none;align=center;fillColor=none;html=1;verticalAlign=middle;whiteSpace=wrap;rounded=0;fontFamily=Architects Daughter;fontSource=https://fonts.googleapis.com/css?family=Architects+Daughter;container=0;" vertex="1" parent="1">
          <mxGeometry x="161" y="425" width="60" height="30" as="geometry" />
        </mxCell>
        <mxCell id="s0-CPVHgHW3RgJkMsbGV-30" value="&lt;font size=&quot;1&quot; face=&quot;Comic Sans MS&quot; color=&quot;#000000&quot;&gt;&lt;b style=&quot;font-size: 14px;&quot;&gt;x = 1&lt;/b&gt;&lt;/font&gt;" style="text;strokeColor=none;align=center;fillColor=none;html=1;verticalAlign=middle;whiteSpace=wrap;rounded=0;fontFamily=Architects Daughter;fontSource=https://fonts.googleapis.com/css?family=Architects+Daughter;container=0;" vertex="1" parent="1">
          <mxGeometry x="109" y="497" width="40" height="20" as="geometry" />
        </mxCell>
        <mxCell id="s0-CPVHgHW3RgJkMsbGV-31" value="&lt;font size=&quot;1&quot; face=&quot;Comic Sans MS&quot; color=&quot;#000000&quot;&gt;&lt;b style=&quot;font-size: 14px;&quot;&gt;x &amp;lt;= num&lt;/b&gt;&lt;/font&gt;" style="text;strokeColor=none;align=center;fillColor=none;html=1;verticalAlign=middle;whiteSpace=wrap;rounded=0;fontFamily=Architects Daughter;fontSource=https://fonts.googleapis.com/css?family=Architects+Daughter;container=0;" vertex="1" parent="1">
          <mxGeometry x="156" y="497" width="70" height="20" as="geometry" />
        </mxCell>
        <mxCell id="s0-CPVHgHW3RgJkMsbGV-32" value="&lt;font size=&quot;1&quot; face=&quot;Comic Sans MS&quot; color=&quot;#000000&quot;&gt;&lt;b style=&quot;font-size: 16px;&quot;&gt;x++&lt;/b&gt;&lt;/font&gt;" style="text;strokeColor=none;align=center;fillColor=none;html=1;verticalAlign=middle;whiteSpace=wrap;rounded=0;fontFamily=Architects Daughter;fontSource=https://fonts.googleapis.com/css?family=Architects+Daughter;container=0;" vertex="1" parent="1">
          <mxGeometry x="233" y="497" width="40" height="20" as="geometry" />
        </mxCell>
        <mxCell id="s0-CPVHgHW3RgJkMsbGV-36" value="" style="rhombus;whiteSpace=wrap;html=1;rounded=0;labelBackgroundColor=none;strokeColor=#0F140C;strokeWidth=2;align=center;verticalAlign=middle;fontFamily=Helvetica;fontSize=12;fontColor=default;fillColor=#d5e8d4;container=0;" vertex="1" parent="1">
          <mxGeometry x="370" y="475" width="130" height="110" as="geometry" />
        </mxCell>
        <mxCell id="s0-CPVHgHW3RgJkMsbGV-37" value="&lt;font style=&quot;font-size: 15px;&quot;&gt;&lt;b&gt;&lt;font style=&quot;font-size: 15px;&quot; color=&quot;#000000&quot; face=&quot;Comic Sans MS&quot;&gt;num %&amp;nbsp;&lt;/font&gt;&lt;/b&gt;&lt;b style=&quot;background-color: initial;&quot;&gt;&lt;font style=&quot;font-size: 15px;&quot; color=&quot;#000000&quot; face=&quot;Comic Sans MS&quot;&gt;x&lt;/font&gt;&lt;/b&gt;&lt;/font&gt;&lt;div style=&quot;font-size: 15px;&quot;&gt;&lt;b style=&quot;background-color: initial;&quot;&gt;&lt;font style=&quot;font-size: 15px;&quot; color=&quot;#000000&quot; face=&quot;Comic Sans MS&quot;&gt;==&lt;/font&gt;&lt;/b&gt;&lt;/div&gt;&lt;div style=&quot;font-size: 15px;&quot;&gt;&lt;b style=&quot;background-color: initial;&quot;&gt;&lt;font style=&quot;font-size: 15px;&quot; color=&quot;#000000&quot; face=&quot;Comic Sans MS&quot;&gt;0&lt;/font&gt;&lt;/b&gt;&lt;/div&gt;" style="text;strokeColor=none;align=center;fillColor=none;html=1;verticalAlign=middle;whiteSpace=wrap;rounded=0;fontFamily=Architects Daughter;fontSource=https%3A%2F%2Ffonts.googleapis.com%2Fcss%3Ffamily%3DArchitects%2BDaughter;container=0;" vertex="1" parent="1">
          <mxGeometry x="400" y="505" width="70" height="60" as="geometry" />
        </mxCell>
        <mxCell id="s0-CPVHgHW3RgJkMsbGV-39" value="" style="shape=trapezoid;perimeter=trapezoidPerimeter;whiteSpace=wrap;html=1;fixedSize=1;rounded=0;labelBackgroundColor=none;strokeColor=#0F140C;strokeWidth=2;align=center;verticalAlign=middle;fontFamily=Helvetica;fontSize=12;fontColor=default;fillColor=#d5e8d4;container=0;" vertex="1" parent="1">
          <mxGeometry x="276" y="610" width="130" height="40" as="geometry" />
        </mxCell>
        <mxCell id="s0-CPVHgHW3RgJkMsbGV-40" value="&lt;font size=&quot;1&quot; face=&quot;Comic Sans MS&quot; color=&quot;#000000&quot;&gt;&lt;b style=&quot;font-size: 20px;&quot;&gt;x&lt;/b&gt;&lt;/font&gt;" style="text;strokeColor=none;align=center;fillColor=none;html=1;verticalAlign=middle;whiteSpace=wrap;rounded=0;fontFamily=Architects Daughter;fontSource=https://fonts.googleapis.com/css?family=Architects+Daughter;container=0;" vertex="1" parent="1">
          <mxGeometry x="309" y="615" width="60" height="30" as="geometry" />
        </mxCell>
        <mxCell id="s0-CPVHgHW3RgJkMsbGV-162" value="&lt;b&gt;&lt;font color=&quot;#000000&quot; style=&quot;font-size: 13px;&quot; face=&quot;Comic Sans MS&quot;&gt;V&lt;/font&gt;&lt;/b&gt;" style="text;strokeColor=none;align=center;fillColor=none;html=1;verticalAlign=middle;whiteSpace=wrap;rounded=0;fontFamily=Architects Daughter;fontSource=https%3A%2F%2Ffonts.googleapis.com%2Fcss%3Ffamily%3DArchitects%2BDaughter;" vertex="1" parent="1">
          <mxGeometry x="324" y="508" width="30" height="25" as="geometry" />
        </mxCell>
        <mxCell id="s0-CPVHgHW3RgJkMsbGV-163" value="&lt;b&gt;&lt;font color=&quot;#000000&quot; style=&quot;font-size: 13px;&quot; face=&quot;Comic Sans MS&quot;&gt;F&lt;/font&gt;&lt;/b&gt;" style="text;strokeColor=none;align=center;fillColor=none;html=1;verticalAlign=middle;whiteSpace=wrap;rounded=0;fontFamily=Architects Daughter;fontSource=https://fonts.googleapis.com/css?family=Architects+Daughter;" vertex="1" parent="1">
          <mxGeometry x="525" y="509" width="30" height="25" as="geometry" />
        </mxCell>
      </root>
    </mxGraphModel>
  </diagram>
</mxfile>
